<?xml version="1.0" standalone="no"?>
<svg version="1.0" xmlns="http://www.w3.org/2000/svg"
 width="114.000000px" height="114.000000px" viewBox="0 0 114.000000 114.000000"
 preserveAspectRatio="xMidYMid meet">
	<g transform="translate(0.000000,114.000000) scale(0.100000,-0.100000)"
	fill="#ffffff" stroke="none">
		<path d="M245 1117 c-33 -20 -42 -31 -54 -69 -25 -75 33 -144 117 -141 41 1
48 -2 100 -54 50 -51 55 -60 53 -95 -2 -41 27 -101 54 -112 12 -4 14 -41 13
-208 l0 -203 -29 -27 c-55 -53 -50 -135 11 -176 58 -39 132 -18 164 48 7 14
11 31 10 38 -1 6 -2 21 -3 33 0 11 -15 34 -31 51 l-30 30 2 199 3 199 75 -74
c68 -68 74 -77 72 -109 -8 -87 82 -151 157 -113 56 30 80 86 57 140 -20 48
-51 69 -104 72 -44 3 -51 7 -126 83 -62 64 -77 85 -73 102 3 12 0 36 -7 53
-21 48 -51 70 -103 72 -41 2 -51 7 -107 63 -53 52 -62 66 -58 90 12 81 -93
150 -163 108z"/>
	</g>
</svg>
